<svg width="120" height="30" viewBox="0 0 120 30" fill="none" xmlns="http://www.w3.org/2000/svg">
  <path d="M10 5H25C27.7614 5 30 7.23858 30 10V20C30 22.7614 27.7614 25 25 25H10C7.23858 25 5 22.7614 5 20V10C5 7.23858 7.23858 5 10 5Z" fill="url(#paint0_linear)" />
  <path d="M40 7H55L60 23H58L53 7H50L45 23H43L48 7H45L40 23H38L40 7Z" fill="white" />
  <path d="M65 7H75C77 7 78 8 78 10V20C78 22 77 23 75 23H65V7ZM67 9V21H74C75 21 76 20 76 19V11C76 10 75 9 74 9H67Z" fill="white" />
  <path d="M85 7H95C97 7 98 8 98 10V13C98 14.6667 97 15.6667 95 16V16.5C97 16.8333 98 18 98 20V23H96V20C96 18.6667 95 18 93 18H87V23H85V7ZM87 9V16H94C95 16 96 15 96 14V11C96 10 95 9 94 9H87Z" fill="white" />
  <path d="M105 7H115C117 7 118 8 118 10V20C118 22 117 23 115 23H105V7ZM107 9V21H114C115 21 116 20 116 19V11C116 10 115 9 114 9H107Z" fill="white" />
  <path d="M15 10L20 15L15 20V10Z" fill="white" />
  <defs>
    <linearGradient id="paint0_linear" x1="5" y1="5" x2="30" y2="25" gradientUnits="userSpaceOnUse">
      <stop stop-color="#8B5CF6" />
      <stop offset="1" stop-color="#4C1D95" />
    </linearGradient>
  </defs>
</svg>